<?xml version="1.0" encoding="utf-8"?>
<!-- Generator: Adobe Illustrator 26.0.2, SVG Export Plug-In . SVG Version: 6.00 Build 0)  -->
<svg version="1.1" xmlns="http://www.w3.org/2000/svg" xmlns:xlink="http://www.w3.org/1999/xlink" x="0px" y="0px"
	 viewBox="0 0 376.5 512" style="enable-background:new 0 0 376.5 512;" xml:space="preserve">
<style type="text/css">
	.st0{fill:#EE2A27;}
	.st1{opacity:0.47;fill:#89171A;}
</style>
<g id="Layer_1">
</g>
<g id="Layer_2">
	<g>
		<g>
			<path class="st0" d="M48.5,5.8c-0.5-0.2-1.1-0.2-1.6-0.1c-7.5,2-15,4-22.5,6c-5.8,1.5-11.6,3.1-17.4,4.6
				c-0.8,0.2-1.1,0.5-1.1,1.4c0,4.7,0,9.3,0,14c0,10.7,0,21.3,0,32c0,7.6,0,15.3,0,22.9c0,0.7,0.2,1,0.9,1.2
				c5.1,1.2,10.1,2.4,15.2,3.6c7.3,1.8,14.6,3.4,21.9,5.3c2.4,0.6,4.7,1,7-0.4c0.5-0.3,1.1-0.5,1.7-0.7c6.3-2.5,12.7-5.1,19-7.6
				c0.8-0.3,1-0.7,1-1.5c0-5.1,0-10.3,0-15.4c0-0.4,0-0.8,0-1.2c-7.4,1.5-14.6,3-21.8,4.5c-1.6,0.3-3.1,0.7-4.8,0.3
				c-2.2-0.5-4.5-1-6.7-1.4c-4.4-0.8-8.9-1.6-13.3-2.4c-3.5-0.7-7.1-1.3-10.6-2c0-2.4,0-4.7,0-7.2c8.2,1.2,16.4,2.4,24.7,3.6
				c0-9.4,0-18.6,0-28c-8.3,1.9-16.4,3.7-24.7,5.6c0-2.7,0-5.2,0-7.7c0-0.3,0.5-0.7,0.8-0.7c4.1-1,8.2-1.9,12.4-2.8
				c4.7-1.1,9.5-2.1,14.3-3.1c2.5-0.5,5-1.8,7.6-0.5c0.4,0.2,0.8,0.3,1.2,0.4c5.4,1.6,10.9,3.3,16.3,4.9c1.5,0.5,3.1,0.9,4.8,1.4
				c0-5.8,0-11.4,0-17c0-0.9-0.3-1.3-1.1-1.6C63.8,12.6,56.2,9.2,48.5,5.8"/>
			<path class="st0" d="M70.3,42.3c-5.5-1.4-11-2.9-16.6-4.4c-2-0.5-4-1-6-1.5c0,10,0,19.8,0,29.8c8.3-1.2,16.5-2.3,24.8-3.5
				c0-0.4,0-0.8,0-1.2c0-5.4,0-10.9,0-16.3C72.6,42.9,72.6,42.9,70.3,42.3z"/>
		</g>
		<polygon class="st1" points="72.6,34.7 47.7,27.5 47.7,5.6 72.3,16.6 		"/>
		<polygon class="st1" points="72.6,62 47.7,65.6 47.7,36.7 72.2,43 		"/>
		<polygon class="st1" points="72.1,87.1 48.4,96.7 48.4,74.8 72.1,70.6 		"/>
	</g>
</g>
</svg>
